<svg xmlns="http://www.w3.org/2000/svg" xmlns:xlink="http://www.w3.org/1999/xlink" version="1.1" width="581pt" height="430pt" viewBox="0 0 581 430">
<defs>
<clipPath id="clip_0">
<path transform="matrix(1,0,0,-1,0,430)" d="M0 430H581V0H0Z"/>
</clipPath>
</defs>
<g id="layer_1" data-name="Layer 1">
<g clip-path="url(#clip_0)">
<path transform="matrix(1,0,0,-1,0,0)" d="M0 0H117.72L80.71-29.45C80.439-29.662 80.378-30.049 80.57-30.34 88.55-42.493 96.893-55.253 105.6-68.62 106.467-69.947 107.287-71.293 108.06-72.66 108.406-73.273 108.35-74.033 107.92-74.59 104.473-79.03 100.913-83.8 97.24-88.9 96.25-90.27 94.69-90.89 93.04-90.74 74.013-89.047 54.993-87.15 35.98-85.05 33.79-84.81 32.95-86.61 32.09-88.16 25.637-99.78 18.62-112.003 11.04-124.83 10.76-125.3 10.897-125.904 11.35-126.2L54.72-154.96C55.4-155.413 55.7-156.043 55.62-156.85L53.29-180.49C53.257-180.83 53.073-181.04 52.74-181.12L0-193.5Z" fill="#ffffff"/>
<path transform="matrix(1,0,0,-1,117.72,0)" d="M0 0H1.57C9.31-4.307 17.157-8.363 25.11-12.17 37.037-17.87 43.05-20.743 43.15-20.79 58.997-28.61 74.797-36.427 90.55-44.24 90.76-44.35 90.845-44.607 90.741-44.815 90.696-44.903 90.622-44.972 90.53-45.01 86.637-46.73 82.827-48.68 79.1-50.86 65.493-58.827 52.913-67.817 41.36-77.83 40.373-78.683 38.973-80.1 37.16-82.08L19.7-100.9C18.787-100.993 17.783-101.76 16.69-103.2 13.297-107.68 10.213-111.84 7.44-115.68-2.287-129.12-9.793-144.103-15.08-160.63-18.27-170.62-20.41-181.32-22.05-191.78-22.097-192.06-22.08-192.337-22-192.61-21.87-193.067-21.449-193.381-20.97-193.38L19.97-193.42C21.297-192.72 22.897-192.43 24.77-192.55 26.73-192.67 27.743-192.73 27.81-192.73 42.863-192.843 57.773-192.867 72.54-192.8 73.22-192.79 73.88-193.02 74.4-193.45 74.585-193.608 74.864-193.581 75.023-193.391 75.071-193.333 75.105-193.264 75.12-193.19L75.25-192.52 75.34-240.83C72.707-241.257 70.103-241.427 67.53-241.34 51.563-240.82 35.66-240.543 19.82-240.51L-19.27-240.88C-19.71-240.887-19.897-241.11-19.83-241.55-14.95-274.957-1.943-304.67 19.19-330.69 23.317-335.963 27.72-340.537 32.4-344.41 33.193-345.723 34.48-347.177 36.26-348.77 45.4-356.923 54.713-363.91 64.2-369.73 69.7-373.11 75.48-375.74 81.2-378.53 81.445-378.646 81.546-378.941 81.426-379.189 81.386-379.27 81.325-379.34 81.25-379.39L3.19-430H2.01L-39.16-397.74C-39.561-397.424-39.633-396.844-39.32-396.44L-10.57-358.78C-10.448-358.625-10.456-358.402-10.59-358.25L-28.44-338.15C-28.778-337.766-29.262-337.536-29.78-337.51-32.133-337.39-34.633-337.437-37.28-337.65-51.353-338.803-65.523-339.903-79.79-340.95-81.407-341.072-82.95-340.25-83.75-338.84L-105.39-300.71C-105.724-300.127-105.528-299.382-104.95-299.03L-65.2-274.84C-63.978-274.1-63.341-272.679-63.6-271.27L-67.58-249.97C-67.807-248.777-68.513-248.053-69.7-247.8L-117.72-237.49V-193.5L-64.98-181.12C-64.647-181.04-64.463-180.83-64.43-180.49L-62.1-156.85C-62.02-156.043-62.32-155.413-63-154.96L-106.37-126.2C-106.823-125.904-106.96-125.3-106.68-124.83-99.1-112.003-92.083-99.78-85.63-88.16-84.77-86.61-83.93-84.81-81.74-85.05-62.727-87.15-43.707-89.047-24.68-90.74-23.03-90.89-21.47-90.27-20.48-88.9-16.807-83.8-13.247-79.03-9.8-74.59-9.37-74.033-9.314-73.273-9.66-72.66-10.433-71.293-11.253-69.947-12.12-68.62-20.827-55.253-29.17-42.493-37.15-30.34-37.342-30.049-37.281-29.662-37.01-29.45Z" fill="#666465"/>
<path transform="matrix(1,0,0,-1,262.52,259.85)" d="M0 0C.216-.221 .571-.226 .792-.01 .862 .059 .913 .145 .94 .24 2.16 4.76 2.97 9.45 4.09 14.06 16.21 64 28.4 113.927 40.66 163.84 41.753 168.293 42.69 172.643 43.47 176.89 43.65 177.85 44.227 178.323 45.2 178.31L61.41 178.13C61.879 178.125 62.255 177.74 62.25 177.27 61.963 139.297 61.92 101.707 62.12 64.5 62.133 61.333 61.53 57.96 60.31 54.38 51.87 29.667 43.917 6.387 36.45-15.46 27.817-40.713 20.187-63.773 13.56-84.64 13.463-84.951 13.175-85.162 12.85-85.16L-14.79-84.99C-15.231-84.989-15.622-84.703-15.76-84.28-25.927-51.88-36.227-19.637-46.66 12.45-48.43 17.9-49.91 23.49-51.73 28.83-55.277 39.257-58.517 49.517-61.45 59.61-61.795 60.811-61.973 62.053-61.98 63.3-62.153 107.767-62.147 145.243-61.96 175.73-61.96 176.27-61.853 176.81-61.64 177.35-61.413 177.917-60.997 178.21-60.39 178.23-55.89 178.357-51.497 178.39-47.21 178.33-45.35 178.303-44.267 177.333-43.96 175.42-42.2 164.49-39 153.84-36.28 143.09-24.047 94.723-12.13 47.343-.53 .95-.437 .583-.26 .267 0 0" fill="#911914"/>
<path transform="matrix(1,0,0,-1,581,81.649997)" d="M0 0V-44.31L-186.64-44.2C-187.027-44.2-187.22-44.007-187.22-43.62L-187.29-.64C-187.29-.357-187.059-.125-186.77-.12Z" fill="#911914"/>
<path transform="matrix(1,0,0,-1,331.97,81.72)" d="M0 0H55.78C56.095 0 56.35-.255 56.35-.57V-262.69C56.35-263.005 56.095-263.26 55.78-263.26H0C-.315-263.26-.57-263.005-.57-262.69V-.57C-.57-.255-.315 0 0 0" fill="#911914"/>
<path transform="matrix(1,0,0,-1,192.97,192.52)" d="M0 0-.13-.67C-.181-.913-.415-1.072-.654-1.025-.726-1.01-.794-.978-.85-.93-1.37-.5-2.03-.27-2.71-.28-17.477-.347-32.387-.323-47.44-.21-47.507-.21-48.52-.15-50.48-.03-52.353 .09-53.953-.2-55.28-.9L-55.55 91.62-38.09 110.44-.53 110.54C-.099 110.54 .25 110.191 .25 109.76Z" fill="#911914"/>
<path transform="matrix(1,0,0,-1,137.42,100.899997)" d="M0 0 .27-92.52-40.67-92.48C-41.149-92.481-41.57-92.167-41.7-91.71-41.78-91.437-41.797-91.16-41.75-90.88-40.11-80.42-37.97-69.72-34.78-59.73-29.493-43.203-21.987-28.22-12.26-14.78-9.487-10.94-6.403-6.78-3.01-2.3-1.917-.86-.913-.093 0 0" fill="#ffffff"/>
<path transform="matrix(1,0,0,-1,455.8629,134.9433)" d="M0 0 64.98-.113C65.245-.114 65.46-.329 65.459-.594L65.435-14.434C65.435-14.699 65.219-14.914 64.954-14.913L-.026-14.8C-.291-14.8-.505-14.584-.505-14.319L-.481-.479C-.48-.214-.265 0 0 0" fill="#666465"/>
<path transform="matrix(1,0,0,-1,461.63,167.54999)" d="M0 0 32.72 16.27C32.766 16.294 32.818 16.308 32.87 16.31L55.27 16.24C55.463 16.233 55.614 16.071 55.608 15.878 55.603 15.752 55.532 15.638 55.42 15.58L21.73-.68C21.683-.701 21.632-.711 21.58-.71L.15-.66C-.043-.653-.194-.491-.188-.298-.183-.172-.112-.058 0 0" fill="#666465"/>
<path transform="matrix(1,0,0,-1,520.64,184.17)" d="M0 0-64.52-.44C-64.929-.446-65.264-.119-65.27 .29L-65.37 13.85C-65.376 14.259-65.049 14.594-64.64 14.6-64.637 14.6-64.633 14.6-64.63 14.6L.05 14.29C.459 14.29 .79 13.959 .79 13.55L.73 .73C.725 .329 .401 .005 0 0" fill="#666465"/>
<path transform="matrix(1,0,0,-1,465.44,192.41)" d="M0 0-.28-15.2C-.285-15.417-.463-15.59-.68-15.59H-9.66C-9.881-15.59-10.06-15.411-10.06-15.19L-10.08 .02C-10.08 .241-9.901 .42-9.68 .42L-.4 .41C-.179 .41 0 .231 0 .01 0 .007 0 .003 0 0" fill="#666465"/>
<path transform="matrix(1,0,0,-1,469.31,192.68)" d="M0 0C-.033 .12-.027 .24 .02 .36 .107 .593 .277 .71 .53 .71 12.21 .65 24.01 .587 35.93 .52 48.75 .45 52.86-9.8 53.65-20.8 53.678-21.213 53.365-21.571 52.952-21.598 52.931-21.6 52.911-21.6 52.89-21.6L43.23-21.5C42.808-21.498 42.456-21.184 42.41-20.77 42.003-17.217 39.93-15.423 36.19-15.39 25.017-15.31 13.487-15.29 1.6-15.33 1.269-15.336 .996-15.072 .99-14.74 .943-12.613 .873-10.55 .78-8.55 .65-5.78-.06-3.2 .05-.39 .057-.257 .04-.127 0 0" fill="#666465"/>
<path transform="matrix(1,0,0,-1,502.84,223.39)" d="M0 0C4.3 0 8.51 1.52 9.05 6.4 9.097 6.827 9.333 7.037 9.76 7.03L19.58 6.96C20 6.953 20.197 6.74 20.17 6.32 19.39-5.32 14.91-15.18 1.2-15.17-8.807-15.163-19.62-15.187-31.24-15.24-31.62-15.247-31.827-15.06-31.86-14.68-32.033-12.613-32.067-10.563-31.96-8.53-31.82-5.89-32.6-3.57-32.77-.98-32.803-.44-32.397 .025-31.862 .058-31.838 .06-31.814 .06-31.79 .06-21.45 .033-10.853 .013 0 0" fill="#666465"/>
<path transform="matrix(1,0,0,-1,455.34,223.75)" d="M0 0C0 .276 .224 .5 .5 .5H9.53C10.165 .5 10.68-.033 10.68-.69V-13.83C10.68-14.487 10.165-15.02 9.53-15.02H.5C.224-15.02 0-14.796 0-14.52Z" fill="#666465"/>
<path transform="matrix(1,0,0,-1,0,237.49)" d="M0 0 48.02-10.31C49.207-10.563 49.913-11.287 50.14-12.48L54.12-33.78C54.379-35.189 53.742-36.61 52.52-37.35L12.77-61.54C12.192-61.892 11.996-62.637 12.33-63.22L33.97-101.35C34.77-102.76 36.313-103.582 37.93-103.46 52.197-102.413 66.367-101.313 80.44-100.16 83.087-99.947 85.587-99.9 87.94-100.02 88.458-100.046 88.942-100.276 89.28-100.66L107.13-120.76C107.264-120.912 107.272-121.135 107.15-121.29L78.4-158.95C78.087-159.354 78.159-159.934 78.56-160.25L119.73-192.51H0Z" fill="#ffffff"/>
<path transform="matrix(1,0,0,-1,193.06,240.83)" d="M0 0 .29-102.67C.29-103.197 .027-103.46-.5-103.46L-42.94-103.58C-47.62-99.707-52.023-95.133-56.15-89.86L-55.52 .32C-39.68 .287-23.777 .01-7.81-.51-5.237-.597-2.633-.427 0 0" fill="#911914"/>
<path transform="matrix(1,0,0,-1,137.54,240.51)" d="M0 0-.63-90.18C-21.763-64.16-34.77-34.447-39.65-1.04-39.717-.6-39.53-.377-39.09-.37Z" fill="#ffffff"/>
<path transform="matrix(1,0,0,-1,467.11,243.81)" d="M0 0 .02-46.83C.02-47.018-.132-47.17-.32-47.17L-11.48-47.2C-11.668-47.2-11.82-47.048-11.82-46.86L-11.67-.16C-11.665 .02-11.52 .165-11.34 .17L-.34 .33C-.156 .33-.005 .184 0 0" fill="#666465"/>
<path transform="matrix(1,0,0,-1,469.6633,259.26539)" d="M0 0 51.12-.089C51.49-.09 51.789-.39 51.789-.76L51.765-14.62C51.764-14.99 51.464-15.29 51.093-15.289L-.027-15.2C-.397-15.199-.696-14.899-.695-14.529L-.671-.669C-.671-.299-.37 .001 0 0" fill="#666465"/>
<path transform="matrix(1,0,0,-1,495.49,323.03)" d="M0 0C.58-.56 1.23-1.01 1.95-1.35 2.277-1.503 2.46-1.763 2.5-2.13 2.52-2.283 2.4-2.41 2.14-2.51 1.993-2.563 1.843-2.587 1.69-2.58-3.443-2.493-8.78-2.47-14.32-2.51-15.533-2.523-16.68-2.203-17.76-1.55-20.933 .357-24.06 2.193-27.14 3.96-27.354 4.084-27.438 4.352-27.329 4.558-27.289 4.634-27.227 4.693-27.15 4.73L25.02 29.43C25.366 29.59 25.776 29.44 25.936 29.094 25.979 29.002 26.001 28.901 26 28.8L25.94 14.38C25.941 13.611 25.492 12.91 24.79 12.58L.2 1.19C-.447 .89-.513 .493 0 0" fill="#666465"/>
<path transform="matrix(1,0,0,-1,456.13,294.38)" d="M0 0 22.32-15.89C22.57-16.063 22.632-16.406 22.459-16.655 22.403-16.735 22.328-16.799 22.24-16.84L9.85-22.63C9.683-22.708 9.487-22.697 9.33-22.6L-.55-16.51C-.712-16.409-.811-16.231-.81-16.04L-.87-.45C-.871-.146-.626 .101-.323 .103-.207 .103-.094 .067 0 0" fill="#666465"/>
<path transform="matrix(1,0,0,-1,455.96,327.77)" d="M0 0H64.86C65.191 0 65.46-.269 65.46-.6V-14.62C65.46-14.951 65.191-15.22 64.86-15.22H0C-.331-15.22-.6-14.951-.6-14.62V-.6C-.6-.269-.331 0 0 0" fill="#666465"/>
</g>
</g>
</svg>
