<svg version="1.2" xmlns="http://www.w3.org/2000/svg" viewBox="0 0 1162 860" width="1162" height="860">
	<title>logo vector-pdf</title>
	<defs>
		<clipPath clipPathUnits="userSpaceOnUse" id="cp1">
			<path d="m0 0h1162v860h-1162z"/>
		</clipPath>
	</defs>
	<style>
		.s0 { fill: #666465 } 
		.s1 { fill: #911914 } 
	</style>
	<g id="Page 1" clip-path="url(#cp1)">
		<path id="Path 2" class="s0" d="m235.4 0h3.2q23.2 12.9 47.1 24.3 35.7 17.1 36 17.3 47.6 23.4 94.8 46.9c0.5 0.2 0.6 0.7 0.4 1.1q-0.1 0.3-0.4 0.4-11.7 5.2-22.9 11.7-40.8 23.9-75.4 54-3 2.5-8.4 8.5l-35 37.6q-2.7 0.3-6 4.6-10.2 13.4-18.5 25-29.2 40.3-45 89.9c-6.4 19.9-10.7 41.3-14 62.3q-0.1 0.8 0.1 1.6c0.3 0.9 1.1 1.6 2.1 1.6h81.9q4-2.1 9.6-1.7 5.9 0.4 6.1 0.4 45.1 0.3 89.4 0.1c1.4 0 2.7 0.4 3.7 1.3 0.4 0.3 1 0.3 1.3-0.1q0.1-0.2 0.2-0.4l0.2-1.4 0.2 96.7q-7.9 1.2-15.6 1-47.9-1.6-95.4-1.7l-78.2 0.8q-1.3 0-1.1 1.3 14.6 100.2 78 178.3 12.4 15.8 26.4 27.4 2.4 4 7.8 8.7 27.4 24.5 55.8 42c11 6.7 22.6 12 34 17.6 0.5 0.2 0.7 0.8 0.5 1.3q-0.1 0.2-0.4 0.4l-156.1 101.2h-2.3l-82.4-64.5c-0.8-0.7-0.9-1.8-0.3-2.6l57.5-75.3c0.2-0.4 0.2-0.8 0-1.1l-35.7-40.2c-0.7-0.8-1.7-1.2-2.7-1.3q-7.1-0.3-15 0.3-42.2 3.5-85 6.6c-3.3 0.2-6.4-1.4-8-4.2l-43.2-76.3c-0.7-1.1-0.3-2.6 0.8-3.3l79.5-48.4c2.5-1.5 3.8-4.3 3.2-7.2l-7.9-42.6q-0.7-3.5-4.3-4.3l-96-20.6v-88l105.5-24.8q1-0.2 1.1-1.2l4.6-47.3q0.3-2.4-1.8-3.8l-86.7-57.5c-0.9-0.6-1.2-1.8-0.6-2.7q22.7-38.5 42.1-73.4c1.7-3.1 3.4-6.7 7.8-6.2q57 6.3 114.1 11.4c3.3 0.3 6.4-1 8.4-3.7q11-15.3 21.3-28.6c0.9-1.1 1-2.7 0.3-3.9q-2.3-4.1-4.9-8.1-26.1-40.1-50.1-76.5c-0.3-0.6-0.2-1.4 0.3-1.8z"/>
		<path id="Path 3" class="s1" d="m525 519.7c0.5 0.4 1.2 0.5 1.6 0q0.2-0.2 0.3-0.5c2.5-9 4.1-18.4 6.3-27.6q36.4-149.8 73.2-299.6 3.2-13.3 5.6-26.1 0.5-2.9 3.4-2.8l32.5 0.3c0.9 0.1 1.6 0.8 1.6 1.8q-0.8 113.9-0.2 225.5 0 9.5-3.6 20.2-25.4 74.2-47.8 139.7-25.9 75.8-45.7 138.4c-0.2 0.6-0.8 1-1.5 1l-55.2-0.3c-0.9 0-1.7-0.6-2-1.4q-30.5-97.2-61.8-193.5c-3.5-10.9-6.5-22.1-10.1-32.8q-10.7-31.2-19.5-61.5c-0.7-2.4-1-4.9-1-7.4q-0.5-133.4 0-224.9 0-1.6 0.7-3.2 0.6-1.7 2.5-1.8 13.5-0.3 26.3-0.2 5.6 0.1 6.5 5.9c3.5 21.8 9.9 43.1 15.4 64.6q36.7 145.1 71.5 284.3 0.3 1.1 1 1.9zm637-356.4v88.6l-373.3-0.2q-1.1 0-1.1-1.2l-0.2-85.9c0-0.6 0.5-1.1 1.1-1.1zm-498.1 0.2h111.6c0.6 0 1.1 0.5 1.1 1.1v524.3c0 0.6-0.5 1.1-1.1 1.1h-111.6c-0.6 0-1.1-0.5-1.1-1.1v-524.3c0-0.6 0.5-1.1 1.1-1.1zm-278 221.6l-0.3 1.3c-0.1 0.5-0.5 0.8-1 0.7q-0.2 0-0.4-0.2c-1-0.8-2.4-1.3-3.7-1.3q-44.3 0.2-89.5-0.1-0.2 0-6.1-0.4-5.6-0.3-9.6 1.8l-0.5-185.1 34.9-37.6 75.1-0.2c0.9 0 1.6 0.7 1.6 1.6z"/>
		<path id="Path 5" class="s0" d="m911.7 269.9l130 0.2c0.5 0 0.9 0.4 0.9 1v27.7c0 0.5-0.4 0.9-1 0.9l-129.9-0.2c-0.6 0-1-0.4-1-1l0.1-27.7c0-0.5 0.4-0.9 0.9-0.9zm11.6 65.2l65.4-32.5q0.1-0.1 0.3-0.1l44.8 0.1c0.4 0 0.7 0.4 0.7 0.7 0 0.3-0.2 0.5-0.4 0.6l-67.4 32.6q-0.1 0-0.3 0l-42.8-0.1c-0.4 0-0.7-0.3-0.7-0.7 0-0.3 0.1-0.5 0.4-0.6zm118 33.2l-129.1 0.9c-0.8 0-1.4-0.6-1.5-1.4l-0.2-27.2c0-0.8 0.7-1.4 1.5-1.5q0 0 0 0l129.4 0.7c0.8 0 1.5 0.6 1.5 1.4l-0.2 25.7c0 0.8-0.6 1.4-1.4 1.4zm-110.4 16.5l-0.6 30.4c0 0.5-0.3 0.8-0.8 0.8h-17.9c-0.5 0-0.8-0.4-0.8-0.8l-0.1-30.4c0-0.5 0.4-0.8 0.8-0.8h18.6c0.4 0 0.8 0.4 0.8 0.8q0 0 0 0zm7.7 0.6q-0.1-0.4 0.1-0.8 0.2-0.7 1-0.7 35 0.2 70.8 0.4c25.6 0.2 33.8 20.7 35.4 42.7 0.1 0.8-0.6 1.5-1.4 1.6q0 0-0.1 0l-19.3-0.2c-0.9 0-1.6-0.7-1.7-1.5q-1.2-10.7-12.4-10.8-33.5-0.2-69.2-0.1c-0.6 0-1.2-0.5-1.2-1.2q-0.1-6.3-0.4-12.3c-0.3-5.6-1.7-10.7-1.5-16.4q0-0.4-0.1-0.7zm67.1 61.4c8.6 0 17-3.1 18.1-12.8q0.1-1.3 1.4-1.3l19.6 0.2q1.3 0 1.2 1.2c-1.5 23.3-10.5 43-37.9 43q-30 0-64.9 0.2-1.1 0-1.2-1.2-0.6-6.2-0.2-12.3c0.2-5.2-1.3-9.9-1.7-15.1 0-1 0.8-2 1.9-2q0 0 0.1 0 31 0 63.6 0.1zm-95 0.7c0-0.6 0.4-1 1-1h18c1.3 0 2.3 1.1 2.3 2.4v26.3c0 1.3-1 2.3-2.3 2.3h-18c-0.6 0-1-0.4-1-1z"/>
		<path id="Path 7" class="s1" d="m386.1 481.7l0.6 205.3q0 1.6-1.6 1.6l-84.9 0.2q-14-11.6-26.4-27.4l1.3-180.4q47.5 0.1 95.4 1.7 7.7 0.2 15.6-1z"/>
		<path id="Path 9" class="s0" d="m934.2 487.6l0.1 93.7c0 0.4-0.3 0.7-0.7 0.7h-22.3c-0.4 0-0.7-0.3-0.7-0.7l0.3-93.4c0-0.3 0.3-0.6 0.6-0.6l22-0.3c0.4 0 0.7 0.3 0.7 0.6zm5.1 30.9l102.3 0.2c0.7 0 1.3 0.6 1.3 1.4v27.7c0 0.7-0.6 1.3-1.4 1.3l-102.2-0.2c-0.8 0-1.4-0.6-1.4-1.3l0.1-27.7c0-0.8 0.6-1.4 1.3-1.4zm51.7 127.6q1.7 1.6 3.9 2.7 1 0.4 1.1 1.5 0 0.5-0.7 0.8-0.5 0.1-0.9 0.1-15.4-0.2-32.1-0.1-3.6 0-6.8-1.9-9.6-5.8-18.8-11.1c-0.4-0.2-0.6-0.7-0.4-1.2q0.1-0.2 0.4-0.3l104.3-49.4c0.7-0.3 1.5 0 1.9 0.7q0.1 0.3 0.1 0.6l-0.1 28.8c0 1.5-0.9 2.9-2.3 3.6l-49.2 22.8q-2 0.9-0.4 2.4zm-78.7-57.3l44.6 31.7c0.5 0.4 0.6 1.1 0.3 1.6q-0.2 0.2-0.5 0.3l-24.7 11.6c-0.4 0.2-0.8 0.2-1.1 0l-19.7-12.2c-0.4-0.2-0.6-0.6-0.6-1l-0.1-31.1c0-0.6 0.5-1.1 1.1-1.1q0.4 0 0.7 0.2zm-0.4 66.7h129.7c0.7 0 1.2 0.6 1.2 1.2v28.1c0 0.6-0.5 1.2-1.2 1.2h-129.7c-0.6 0-1.2-0.6-1.2-1.2v-28.1c0-0.6 0.6-1.2 1.2-1.2z"/>
	</g>
</svg>