<?xml version="1.0" encoding="utf-8"?>
<!-- Generator: Adobe Illustrator 16.0.0, SVG Export Plug-In . SVG Version: 6.00 Build 0)  -->
<!DOCTYPE svg PUBLIC "-//W3C//DTD SVG 1.1//EN" "http://www.w3.org/Graphics/SVG/1.1/DTD/svg11.dtd">
<svg version="1.1" id="Layer_1" xmlns="http://www.w3.org/2000/svg" xmlns:xlink="http://www.w3.org/1999/xlink" x="0px" y="0px"
	 width="612px" height="792px" viewBox="0 0 612 792" enable-background="new 0 0 612 792" xml:space="preserve">
<path fill-rule="evenodd" clip-rule="evenodd" fill="#676666" d="M222.836,484.875c0.237,3.054,2.778,4.409,4.753,5.987
	c7.671,6.128,15.708,11.729,24.707,15.614c0.316,1.774-1.101,2.055-1.973,2.615c-14.69,9.434-29.452,18.756-44.071,28.298
	c-2.432,1.587-3.77,1.351-5.961-0.416c-6.732-5.424-13.68-10.589-20.676-15.673c-2.461-1.788-3.376-3.044-1.029-5.829
	c5.033-5.973,9.556-12.374,14.551-18.383c2.036-2.448,2.406-4.204-0.37-6.086c-0.271-0.184-0.557-0.422-0.703-0.703
	c-5.51-10.703-14.732-11.295-24.943-9.154c-4.935,1.034-9.956,0.642-14.931,0.995c-2.149,0.152-3.809-0.311-4.961-2.441
	c-3.632-6.718-7.305-13.419-11.209-19.979c-1.482-2.491-1.084-3.683,1.345-5.105c6.588-3.858,12.957-8.092,19.562-11.922
	c3.134-1.815,4.442-3.802,3.731-7.622c-2.174-11.678-2.022-11.727-13.801-14.253c-5.365-1.15-10.723-2.391-16.14-3.225
	c-3.593-0.554-4.52-2.315-4.379-5.724c0.262-6.32,0.313-12.667,0.04-18.984c-0.138-3.183,0.956-4.409,3.953-5.049
	c8.77-1.877,17.458-4.142,26.232-5.997c3.193-0.675,3.774-2.405,4.574-5.344c2.65-9.733-1.396-15.374-9.757-19.608
	c-5.308-2.688-10.025-6.517-15.144-9.608c-2.183-1.319-2.732-2.502-1.359-4.759c4.066-6.677,8.154-13.35,11.92-20.196
	c1.82-3.308,4.539-2.266,6.992-2.075c9.778,0.76,19.536,1.771,29.309,2.596c3.577,0.303,12.396-7.159,12.713-10.64
	c0.152-1.67-1.194-2.671-2.007-3.897c-4.594-6.924-9.083-13.921-13.854-20.721c-1.814-2.585-1.184-4,1.053-5.712
	c6.204-4.748,12.353-9.574,18.382-14.54c1.839-1.516,3.168-1.539,5.288-0.479c17.845,8.924,35.768,17.69,54.164,26.749
	c-5.37,3.284-10.627,6.261-15.627,9.621c-4.963,3.336-9.687,7.034-14.476,10.625c-1.264,0.947-3.071,1.823-1.52,3.922
	c-6.212,3.007-10.678,7.608-12.943,14.212c-1.139-3.452-2.159-1.049-3.107,0.098c-11.124,13.463-18.164,28.904-22.303,45.788
	c-2.664,10.869-2.742,11.061,8.134,10.785c5.736-0.146,11.59,1.365,17.225-0.872c11.718,0.365,23.437,0.463,35.154-0.014
	c0.07,10.781,0.14,21.562,0.21,32.342c-2.098-0.365-4.193-1.025-6.294-1.045c-9.732-0.093-19.466-0.008-29.199,0.014
	c-7.152-0.058-14.313,0.074-21.453-0.248c-3.773-0.171-4.499,0.923-3.65,4.509c3.267,13.813,7.467,27.271,14.993,39.408
	c2.783,4.487,4.998,9.602,10.027,12.332C215.872,479.316,218.911,482.494,222.836,484.875z"/>
<path fill-rule="evenodd" clip-rule="evenodd" fill="#911C1A" d="M294.604,431.235c3.626-14.934,6.925-28.626,10.279-42.304
	c4.504-18.37,9.072-36.723,13.56-55.095c1.023-4.188,1.685-8.467,2.781-12.633c1.568-5.964,6.524-3.066,10.02-3.329
	c3.6-0.271,2.268,3.017,2.279,4.84c0.1,15.818-0.622,31.674,0.244,47.445c0.927,16.884-3.042,32.495-8.606,48.121
	c-7.46,20.947-14.324,42.106-21.292,63.225c-0.887,2.688-2.113,3.73-4.918,3.589c-4.649-0.234-10.006,1.264-13.783-0.586
	c-3.957-1.938-3.689-8.05-5.098-12.355c-8.1-24.745-16.002-49.557-23.886-74.373c-0.952-2.996-1.318-6.129-1.308-9.341
	c0.071-21.98,0.007-43.959,0.056-65.938c0.004-1.881-1.207-5.046,2.452-4.645c3.126,0.344,7.522-2.378,8.884,3.474
	c2.857,12.281,6.064,24.48,9.119,36.715c4.304,17.236,8.611,34.472,12.896,51.712c1.28,5.152,2.561,10.308,3.698,15.493
	C292.375,427.049,292.94,428.662,294.604,431.235z"/>
<path fill-rule="evenodd" clip-rule="evenodd" fill="#911A19" d="M374.152,401.351c0.004,26.155-0.083,52.312,0.098,78.466
	c0.027,3.991-0.735,5.501-5.078,5.334c-9.149-0.353-18.323-0.198-27.484-0.051c-2.848,0.046-3.656-0.889-3.651-3.714
	c0.096-53.145,0.114-106.289,0.068-159.433c-0.002-2.897,0.674-4.248,3.861-4.204c9.327,0.13,18.663,0.19,27.985-0.084
	c3.805-0.112,4.267,1.518,4.255,4.719C374.105,348.706,374.148,375.028,374.152,401.351z"/>
<path fill-rule="evenodd" clip-rule="evenodd" fill="#901A18" d="M437.938,345.375c-18.328,0-36.656-0.104-54.982,0.083
	c-3.904,0.04-5.242-1.003-5.009-5.016c0.349-5.978,0.302-12.001,0.014-17.985c-0.178-3.685,0.851-4.821,4.691-4.779
	c18.659,0.203,37.321,0.088,55.983,0.063c17.995-0.023,35.991,0.053,53.982-0.21c4.198-0.061,5.501,1.155,5.244,5.317
	c-0.348,5.643-0.356,11.343,0.021,16.983c0.292,4.345-0.976,5.664-5.462,5.597c-18.158-0.266-36.321-0.11-54.482-0.11
	C437.938,345.337,437.938,345.355,437.938,345.375z"/>
<path fill-rule="evenodd" clip-rule="evenodd" fill="#901818" d="M249.371,387.769c-11.718,0.477-23.436,0.379-35.154,0.016
	c0.012-2.95,0.024-5.902,0.036-8.854c0.11-0.084,0.326-0.2,0.312-0.246c-0.071-0.231-0.202-0.444-0.312-0.664
	c-0.005-2.706-0.011-5.411-0.017-8.117c1.01-1.954,1.021-3.907-0.008-5.857c0.014-10.688,0.027-21.375,0.04-32.063
	c2.266-6.603,6.731-11.204,12.943-14.211c6.314,0.027,12.629,0.073,18.943,0.072c1.912-0.001,3.689-0.148,3.652,2.669
	C249.51,342.931,250.318,365.356,249.371,387.769z"/>
<path fill-rule="evenodd" clip-rule="evenodd" fill="#901918" d="M222.836,484.875c-3.925-2.381-6.964-5.559-8.832-9.795
	c0.05-10.727,0.099-21.451,0.149-32.177c1.207-3.956,1.153-7.918,0.045-11.883c-0.037-3.98-0.074-7.96-0.111-11.94
	c9.733-0.021,19.467-0.106,29.199-0.014c2.102,0.02,4.196,0.68,6.294,1.045c0.009,21.231,0.019,42.463,0.028,63.693
	c-4.482,0.751-9.099-0.557-13.537,0.881c-1.727-0.011-3.453-0.021-5.178-0.031c-2.295-1.025-4.59-1.006-6.882,0.017
	C223.62,484.738,223.228,484.807,222.836,484.875z"/>
<path fill-rule="evenodd" clip-rule="evenodd" fill="#901918" d="M236.072,484.686c4.438-1.438,9.054-0.13,13.537-0.881
	C245.242,486.332,240.592,484.508,236.072,484.686z"/>
<path fill-rule="evenodd" clip-rule="evenodd" fill="#901918" d="M224.012,484.671c2.292-1.022,4.587-1.042,6.882-0.017
	C228.601,485.109,226.307,485.053,224.012,484.671z"/>
<path fill-rule="evenodd" clip-rule="evenodd" fill="#901918" d="M214.236,369.904c-0.424-1.953-0.41-3.906-0.008-5.858
	C215.257,365.997,215.246,367.95,214.236,369.904z"/>
<path fill-rule="evenodd" clip-rule="evenodd" fill="#901918" d="M214.253,378.931c-0.226-0.305-0.226-0.608,0-0.911
	c0.11,0.221,0.241,0.434,0.312,0.665C214.579,378.731,214.363,378.847,214.253,378.931z"/>
<path fill-rule="evenodd" clip-rule="evenodd" fill="#901918" d="M214.153,442.903c0.015-3.961,0.03-7.923,0.045-11.884
	C215.306,434.985,215.36,438.947,214.153,442.903z"/>
<path fill="none" d="M497.86,345.144c0,64.208-0.014,128.416,0.063,192.624c0.003,2.198-0.438,2.632-2.666,2.629
	c-98.723-0.07-197.444-0.062-296.166-0.062c-0.284-0.974,0.457-1.303,1.093-1.706c9.373-5.952,18.773-11.862,28.108-17.869
	c6.671-4.294,13.257-8.715,19.889-13.086c-0.665-1.052-1.66-1.267-2.521-1.649c-9.676-4.326-17.982-10.642-25.974-17.402
	c-0.837-0.708-2.209-1.526-1.672-2.813c0.482-1.155,1.936-0.682,2.964-0.689c6.834-0.05,13.675-0.227,20.5,0.036
	c3.246,0.123,3.917-0.913,3.891-3.937c-0.217-25.251-0.348-50.502-0.339-75.753c0.009-28.354,0.16-56.707,0.346-85.061
	c0.018-2.63-0.719-3.562-3.471-3.473c-5.852,0.19-11.714,0.083-17.572,0.05c-1.019-0.006-2.47,0.479-2.88-0.777
	c-0.381-1.168,0.99-1.768,1.762-2.446c5.602-4.915,11.626-9.276,17.915-13.298c4.239-2.71,8.587-5.231,13.55-7.561
	c-4.465-2.21-8.402-4.186-12.363-6.113c-13.886-6.759-27.787-13.484-41.65-20.287c-1.066-0.522-2.598-0.677-2.879-2.258
	c99.064,0,198.13,0.012,297.194-0.067c2.551-0.002,2.951,0.685,2.937,3.003c-0.11,16.571-0.06,33.143-0.06,49.715
	c-2.929-0.022-5.855-0.063-8.784-0.061c-36.554,0.013-73.109,0.058-109.664-0.008c-2.588-0.005-3.368,0.688-3.313,3.244
	c0.158,7.379,0.123,14.765,0.015,22.146c-0.032,2.234,0.7,2.904,2.981,2.894c18.005-0.088,36.011-0.066,54.015-0.053
	C454.694,345.071,476.277,345.113,497.86,345.144z M291.182,431.164c-1.18-0.711-1.333-1.338-1.493-1.96
	c-4.527-17.698-9.1-35.386-13.57-53.1c-4.76-18.866-9.437-37.753-14.109-56.641c-0.488-1.973-1.475-2.958-3.612-2.702
	c-0.963,0.117-1.952,0.019-2.927,0.035c-5.147,0.086-5.182,0.088-5.182,5.092c-0.001,22.471,0.023,44.943,0.023,67.415
	c0,1.622,0.239,3.168,0.743,4.723c5.993,18.523,11.953,37.056,17.911,55.589c3.437,10.692,6.824,21.4,10.312,32.076
	c0.584,1.79,0.623,4.104,3.707,3.981c4.548-0.181,9.113-0.123,13.664,0.045c2.058,0.076,2.796-0.782,3.37-2.566
	c9.238-28.733,19.411-57.157,29.22-85.702c0.974-2.83,1.73-5.667,1.719-8.752c-0.09-21.078-0.1-42.156-0.029-63.234
	c0.031-9.038,0.148-8.999-9.152-8.672c-1.781,0.063-2.768,0.505-3.095,2.399c-0.507,2.94-1.236,5.846-1.955,8.748
	c-7.55,30.493-15.117,60.981-22.675,91.472C293.107,423.213,292.192,427.021,291.182,431.164z M372.301,401.391
	c-0.005,0-0.011,0-0.016,0c0-26.85-0.046-53.7,0.065-80.549c0.013-2.972-0.622-4.114-3.881-4.048
	c-9.864,0.201-19.736,0.17-29.603,0.025c-2.839-0.042-3.648,0.74-3.625,3.614c0.235,28.451,0.38,56.902,0.405,85.355
	c0.022,25.351-0.105,50.7-0.265,76.05c-0.02,2.744,0.428,3.945,3.688,3.867c9.646-0.227,19.302-0.037,28.953-0.013
	c4.272,0.011,4.276,0.01,4.276-4.071C372.302,454.879,372.301,428.135,372.301,401.391z M437.974,475.033c0-0.004,0-0.008,0-0.011
	c-5.097,0-10.193-0.068-15.288,0.017c-6.866,0.115-6.042-1.564-6.203,6.393c-0.046,2.316,0.804,2.882,3.012,2.864
	c10.842-0.096,21.685,0.007,32.528-0.075c7.724-0.059,6.464,1.563,6.676-6.898c0.048-1.888-0.755-2.341-2.51-2.319
	C450.118,475.08,444.045,475.033,437.974,475.033z M437.369,359.992c0,0.104,0,0.208,0,0.313c5.189,0,10.379,0.044,15.567-0.012
	c7.044-0.076,5.437,0.014,5.75-5.75c0.143-2.627-0.711-3.5-3.45-3.465c-11.139,0.141-22.28,0.02-33.421,0.081
	c-5.878,0.033-5.045-0.916-5.38,5.335c-0.161,3.012,1.032,3.616,3.737,3.545C425.901,359.886,431.637,359.992,437.369,359.992z
	 M437.673,373.587c-0.001-0.008-0.001-0.015-0.001-0.022c-6.057,0-12.114,0.102-18.167-0.048c-2.493-0.063-3.354,0.844-3.039,3.165
	c0.086,0.63,0.123,1.291,0.033,1.917c-0.421,2.925,0.782,3.817,3.773,3.764c10.921-0.193,21.848-0.064,32.771-0.171
	c6.256-0.062,5.492,1.294,5.655-5.578c0.057-2.423-0.793-3.129-3.181-3.073C449.572,373.681,443.621,373.587,437.673,373.587z
	 M438.276,387.726c-2.055,0-4.11-0.044-6.163,0.008c-7.492,0.191-6.514-1.577-6.144,6.704c0.103,2.291,0.893,3.306,3.515,3.217
	c6.265-0.215,12.542-0.062,18.813-0.063c1.542,0,3.398-0.031,3.952,1.54c1.222,3.461,3.976,2.072,6.23,2.244
	c0.653,0.049,1.152-0.42,1.257-1.195c0.617-4.585-3.453-10.402-8.232-11.758C447.144,387.186,442.68,388.123,438.276,387.726z
	 M438.905,416.994c3.031,0,6.063,0.059,9.092-0.014c6.472-0.151,10.428-3.684,11.229-10.07c0.137-1.08,1.3-2.828-0.842-3.092
	c-1.773-0.217-4.149-1.188-5.281,0.906c-1.545,2.853-3.978,3.339-6.77,3.359c-4.546,0.034-9.092,0.027-13.639,0.018
	c-6.517-0.014-6.438-0.024-6.252,6.473c0.051,1.804,0.575,2.486,2.397,2.442C432.193,416.938,435.55,416.995,438.905,416.994z
	 M441.557,440.069c3.782,0,7.564-0.008,11.346,0.002c6.746,0.016,5.529,0.441,5.831-5.554c0.142-2.805-0.967-3.416-3.535-3.377
	c-7.995,0.116-15.993-0.003-23.989,0.052c-7.09,0.048-5.83-1.004-6.087,6.187c-0.079,2.23,0.833,2.742,2.818,2.711
	C432.479,440.018,437.019,440.065,441.557,440.069z M425.659,468.768c4.333,4.962,9.934,4.034,15.291,4.072
	c0.482,0.005,1.374,0.133,1.147-0.604c-0.698-2.288,1.297-2.084,2.378-2.623c2.801-1.396,5.535-3.122,8.516-3.927
	c5.355-1.445,6.221-4.879,5.771-9.632c-0.223-2.365-0.674-2.756-2.808-1.734c-6.714,3.211-13.54,6.201-20.213,9.489
	C432.388,465.46,428.661,466.419,425.659,468.768z M423.454,436.206c0-4.262-0.095-8.526,0.035-12.785
	c0.086-2.813-1.819-2.36-3.495-2.354c-1.655,0.003-3.544-0.509-3.514,2.315c0.088,8.31,0.095,16.624-0.033,24.936
	c-0.046,2.925,1.819,2.519,3.649,2.571c2.047,0.061,3.562-0.116,3.413-2.859C423.298,444.099,423.456,440.149,423.454,436.206z
	 M453.833,362.419c-5.842-0.219-11.537-1.703-16.952,1.524c-4.854,2.893-10.148,5.062-15.734,7.787c4.992,0,9.68,1.067,13.544-0.238
	C441.342,369.247,447.479,365.523,453.833,362.419z M416.474,458.717c0.016,6.816,4.398,9.65,10.317,6.905
	c0.681-0.315,1.345-0.692,2.059-0.912c1.926-0.59,1.491-1.433,0.265-2.296c-2.713-1.911-5.443-3.791-8.195-5.646
	c-1.211-0.817-2.543-2.499-3.792-1.924C415.739,455.483,416.726,457.536,416.474,458.717z M422.16,392.701c0.014,0,0.026,0,0.039,0
	c0-0.749-0.087-1.509,0.017-2.242c0.339-2.393-0.888-2.819-3.014-2.787c-1.895,0.029-2.842,0.48-2.701,2.511
	c0.117,1.703,0.124,3.427,0.004,5.13c-0.157,2.241,1.189,2.288,2.878,2.306c1.744,0.019,3.039-0.154,2.793-2.353
	C422.081,394.42,422.16,393.556,422.16,392.701z M422.781,413.423c0-0.762-0.015-1.08,0.002-1.396
	c0.125-2.308-0.038-4.11-3.263-4.164c-3.525-0.059-2.997,2.146-3.012,4.229c-0.004,0.74,0.063,1.488-0.019,2.221
	c-0.229,2.041,0.65,2.694,2.721,2.877C422.727,417.499,423.187,415.688,422.781,413.423z"/>
<path fill="#676666" d="M437.974,475.033c6.071,0,12.143,0.047,18.214-0.03c1.755-0.021,2.558,0.432,2.51,2.319
	c-0.213,8.462,1.048,6.84-6.677,6.898c-10.842,0.082-21.686-0.021-32.527,0.075c-2.207,0.018-3.058-0.548-3.012-2.864
	c0.16-7.957-0.664-6.277,6.203-6.393c5.095-0.086,10.191-0.017,15.287-0.017C437.974,475.025,437.974,475.029,437.974,475.033z"/>
<path fill="#676666" d="M437.369,359.992c-5.732,0-11.467-0.106-17.195,0.046c-2.705,0.071-3.898-0.533-3.737-3.545
	c0.334-6.25-0.499-5.303,5.38-5.335c11.14-0.061,22.281,0.06,33.42-0.081c2.74-0.035,3.594,0.838,3.45,3.465
	c-0.313,5.763,1.294,5.674-5.749,5.75c-5.188,0.056-10.378,0.012-15.567,0.012C437.369,360.2,437.369,360.095,437.369,359.992z"/>
<path fill="#676666" d="M437.673,373.587c5.948,0,11.898,0.094,17.845-0.047c2.387-0.056,3.237,0.65,3.18,3.073
	c-0.163,6.872,0.602,5.517-5.654,5.578c-10.923,0.107-21.85-0.021-32.771,0.171c-2.992,0.053-4.194-0.84-3.774-3.764
	c0.091-0.626,0.054-1.287-0.032-1.917c-0.315-2.32,0.545-3.227,3.038-3.165c6.053,0.15,12.111,0.048,18.167,0.048
	C437.672,373.572,437.672,373.58,437.673,373.587z"/>
<path fill="#676666" d="M438.277,387.728c4.402,0.396,8.866-0.542,13.228,0.694c4.78,1.356,8.849,7.173,8.232,11.758
	c-0.104,0.775-0.604,1.245-1.257,1.195c-2.255-0.172-5.009,1.217-6.23-2.244c-0.555-1.571-2.411-1.539-3.952-1.539
	c-6.271,0.001-12.548-0.15-18.813,0.063c-2.622,0.09-3.412-0.925-3.515-3.217c-0.37-8.281-1.349-6.513,6.143-6.703
	C434.166,387.682,436.222,387.726,438.277,387.728z"/>
<path fill="#676666" d="M438.905,416.995c-3.355,0-6.712-0.057-10.066,0.022c-1.821,0.044-2.346-0.64-2.398-2.442
	c-0.184-6.496-0.262-6.487,6.254-6.472c4.547,0.01,9.093,0.015,13.64-0.019c2.791-0.021,5.224-0.508,6.767-3.36
	c1.134-2.094,3.511-1.123,5.283-0.906c2.141,0.264,0.978,2.014,0.842,3.093c-0.803,6.386-4.758,9.918-11.229,10.071
	C444.969,417.053,441.937,416.994,438.905,416.995z"/>
<path fill="#676666" d="M441.557,440.068c-4.54-0.003-9.078-0.051-13.616,0.021c-1.986,0.031-2.897-0.48-2.818-2.711
	c0.257-7.19-1.003-6.139,6.087-6.187c7.996-0.055,15.994,0.064,23.989-0.052c2.567-0.039,3.677,0.572,3.535,3.377
	c-0.302,5.996,0.915,5.569-5.831,5.554C449.121,440.063,445.339,440.069,441.557,440.068z"/>
<path fill="#676666" d="M425.659,468.768c3.001-2.349,6.729-3.308,10.083-4.959c6.674-3.289,13.498-6.278,20.213-9.49
	c2.134-1.021,2.585-0.63,2.808,1.734c0.448,4.753-0.416,8.187-5.771,9.633c-2.98,0.804-5.715,2.529-8.516,3.926
	c-1.081,0.54-3.077,0.336-2.378,2.623c0.228,0.737-0.664,0.608-1.146,0.604C435.593,472.802,429.993,473.729,425.659,468.768z"/>
<path fill="#676666" d="M423.455,436.206c0.001,3.943-0.157,7.893,0.055,11.823c0.148,2.743-1.367,2.92-3.413,2.859
	c-1.83-0.053-3.695,0.354-3.649-2.571c0.127-8.312,0.12-16.626,0.033-24.936c-0.03-2.824,1.858-2.313,3.514-2.315
	c1.675-0.006,3.581-0.459,3.495,2.354C423.358,427.68,423.454,431.944,423.455,436.206z"/>
<path fill="#676666" d="M453.833,362.419c-6.354,3.104-12.49,6.827-19.143,9.073c-3.864,1.305-8.552,0.238-13.544,0.238
	c5.586-2.725,10.881-4.895,15.734-7.787C442.296,360.717,447.991,362.201,453.833,362.419z"/>
<path fill="#676666" d="M416.474,458.717c0.252-1.181-0.734-3.232,0.653-3.872c1.249-0.575,2.581,1.106,3.792,1.924
	c2.752,1.854,5.482,3.734,8.195,5.646c1.227,0.863,1.661,1.706-0.265,2.296c-0.714,0.22-1.378,0.597-2.059,0.912
	C420.872,468.367,416.489,465.533,416.474,458.717z"/>
<path fill="#676666" d="M422.16,392.701c0,0.855-0.079,1.72,0.015,2.565c0.246,2.198-1.049,2.371-2.793,2.353
	c-1.688-0.017-3.035-0.064-2.878-2.306c0.121-1.704,0.113-3.427-0.004-5.13c-0.141-2.03,0.807-2.482,2.702-2.511
	c2.125-0.032,3.353,0.394,3.013,2.787c-0.104,0.733-0.017,1.494-0.017,2.242C422.187,392.701,422.174,392.701,422.16,392.701z"/>
<path fill="#676666" d="M422.781,413.423c0.405,2.264-0.057,4.076-3.57,3.767c-2.07-0.183-2.949-0.837-2.721-2.877
	c0.081-0.732,0.015-1.48,0.019-2.221c0.015-2.082-0.514-4.287,3.012-4.229c3.225,0.054,3.388,1.857,3.263,4.164
	C422.767,412.344,422.781,412.662,422.781,413.423z"/>
</svg>
